<svg width="19" height="19" viewBox="0 0 19 19" fill="none" xmlns="http://www.w3.org/2000/svg">
<path d="M9.0345 12.3935L7.71875 17.2188L10.6835 14.0426M7.32846 10.6875H2.96875L5.07379 8.43204M6.69512 6.69512L11.2813 1.78125L9.5 8.3125H16.0313L12.3049 12.3049M6.69512 6.69512L2.375 2.375ZM6.69512 6.69512L12.3049 12.3049ZM12.3049 12.3049L16.625 16.625Z" fill="#FFCCBC"/>
<path d="M9.0345 12.3935L7.71875 17.2188L10.6835 14.0426M7.32846 10.6875H2.96875L5.07379 8.43204M6.69512 6.69512L11.2813 1.78125L9.5 8.3125H16.0313L12.3049 12.3049M6.69512 6.69512L2.375 2.375M6.69512 6.69512L12.3049 12.3049M12.3049 12.3049L16.625 16.625" stroke="#B71C1C" stroke-linecap="round" stroke-linejoin="round"/>
</svg>
