<svg width="110" height="110" viewBox="0 0 110 110" fill="none" xmlns="http://www.w3.org/2000/svg">
<circle cx="55" cy="55" r="55" fill="url(#paint0_linear_491_1646)"/>
<path d="M55.5004 71.2501V56.5938ZM55.5004 56.5938C56.9129 56.5949 58.3199 56.4176 59.6879 56.0662ZM55.5004 56.5938C54.0879 56.5949 52.681 56.4176 51.3129 56.0662ZM61.7817 76.9423C57.6313 77.7304 53.3696 77.7304 49.2192 76.9423ZM59.6879 83.5948C56.9039 83.8863 54.097 83.8863 51.3129 83.5948ZM61.7817 71.2501V70.7141C61.7817 67.9699 63.6186 65.6249 65.9915 64.2486C69.978 61.94 73.0919 58.3811 74.8506 54.1233C76.6093 49.8655 76.9148 45.1466 75.7196 40.6976C74.5243 36.2487 71.8952 32.3181 68.2395 29.5149C64.5839 26.7117 60.1057 25.1924 55.499 25.1924C50.8923 25.1924 46.4142 26.7117 42.7585 29.5149C39.1029 32.3181 36.4737 36.2487 35.2785 40.6976C34.0833 45.1466 34.3887 49.8655 36.1474 54.1233C37.9062 58.3811 41.02 61.94 45.0066 64.2486C47.3795 65.6249 49.2192 67.9699 49.2192 70.7141V71.2501" fill="#FFF9C4"/>
<path d="M55.5004 71.2501V56.5938M55.5004 56.5938C56.9129 56.5949 58.3199 56.4176 59.6879 56.0662M55.5004 56.5938C54.0879 56.5949 52.681 56.4176 51.3129 56.0662M61.7817 76.9423C57.6313 77.7304 53.3696 77.7304 49.2192 76.9423M59.6879 83.5948C56.9039 83.8863 54.097 83.8863 51.3129 83.5948M61.7817 71.2501V70.7141C61.7817 67.9699 63.6186 65.6249 65.9915 64.2486C69.978 61.94 73.0919 58.3811 74.8506 54.1233C76.6093 49.8655 76.9148 45.1466 75.7196 40.6976C74.5243 36.2487 71.8952 32.3181 68.2395 29.5149C64.5839 26.7117 60.1057 25.1924 55.499 25.1924C50.8923 25.1924 46.4142 26.7117 42.7585 29.5149C39.1029 32.3181 36.4737 36.2487 35.2785 40.6976C34.0833 45.1466 34.3887 49.8655 36.1474 54.1233C37.9062 58.3811 41.02 61.94 45.0066 64.2486C47.3795 65.6249 49.2192 67.9699 49.2192 70.7141V71.2501" stroke="#F57F17" stroke-width="3" stroke-linecap="round" stroke-linejoin="round"/>
<defs>
<linearGradient id="paint0_linear_491_1646" x1="55" y1="0" x2="55" y2="110" gradientUnits="userSpaceOnUse">
<stop stop-color="#FFF9C4"/>
<stop offset="1" stop-color="#FBC02D"/>
</linearGradient>
</defs>
</svg>
