<svg width="19" height="19" viewBox="0 0 19 19" fill="none" xmlns="http://www.w3.org/2000/svg">
<g clip-path="url(#clip0_491_1205)">
<path d="M9.5004 14.2501V10.0939ZM9.5004 10.0939C9.90095 10.0942 10.2999 10.0439 10.6879 9.94423ZM9.5004 10.0939C9.09984 10.0942 8.70085 10.0439 8.3129 9.94423ZM11.2816 15.8643C10.1047 16.0878 8.89613 16.0878 7.71915 15.8643ZM10.6879 17.7509C9.89839 17.8335 9.10241 17.8335 8.3129 17.7509ZM11.2816 14.2501V14.0981C11.2816 13.3199 11.8026 12.6549 12.4755 12.2646C13.606 11.6099 14.489 10.6007 14.9878 9.39326C15.4865 8.18583 15.5731 6.84762 15.2342 5.58597C14.8952 4.32433 14.1497 3.20968 13.113 2.41475C12.0763 1.61981 10.8064 1.18896 9.5 1.18896C8.19362 1.18896 6.92371 1.61981 5.88702 2.41475C4.85034 3.20968 4.10477 4.32433 3.76582 5.58597C3.42688 6.84762 3.51349 8.18583 4.01224 9.39326C4.51098 10.6007 5.39402 11.6099 6.52452 12.2646C7.19744 12.6549 7.71915 13.3199 7.71915 14.0981V14.2501" fill="#FFF9C4"/>
<path d="M9.5004 14.2501V10.0939M9.5004 10.0939C9.90095 10.0942 10.2999 10.0439 10.6879 9.94423M9.5004 10.0939C9.09984 10.0942 8.70085 10.0439 8.3129 9.94423M11.2816 15.8643C10.1047 16.0878 8.89613 16.0878 7.71915 15.8643M10.6879 17.7509C9.89839 17.8335 9.10241 17.8335 8.3129 17.7509M11.2816 14.2501V14.0981C11.2816 13.3199 11.8026 12.6549 12.4755 12.2646C13.606 11.6099 14.489 10.6007 14.9878 9.39326C15.4865 8.18583 15.5731 6.84762 15.2342 5.58597C14.8952 4.32433 14.1497 3.20968 13.113 2.41475C12.0763 1.61981 10.8064 1.18896 9.5 1.18896C8.19362 1.18896 6.92371 1.61981 5.88702 2.41475C4.85034 3.20968 4.10477 4.32433 3.76582 5.58597C3.42688 6.84762 3.51349 8.18583 4.01224 9.39326C4.51098 10.6007 5.39402 11.6099 6.52452 12.2646C7.19744 12.6549 7.71915 13.3199 7.71915 14.0981V14.2501" stroke="#F57F17" stroke-linecap="round" stroke-linejoin="round"/>
</g>
<defs>
<clipPath id="clip0_491_1205">
<rect width="19" height="19" fill="white"/>
</clipPath>
</defs>
</svg>
