<svg width="110" height="110" viewBox="0 0 110 110" fill="none" xmlns="http://www.w3.org/2000/svg">
<circle cx="55" cy="55" r="55" fill="url(#paint0_linear_475_465)"/>
<path d="M55 30.25V77.6875ZM55 77.6875C50.952 77.6875 47.0745 78.4162 43.4913 79.75ZM55 77.6875C59.048 77.6875 62.9255 78.4162 66.5087 79.75ZM73.5625 35.6675C67.4127 34.8043 61.2101 34.3724 55 34.375C48.6998 34.375 42.5012 34.815 36.4375 35.6675M73.5625 35.6675C76.34 36.0607 79.09 36.5392 81.8125 37.0975ZM73.5625 35.6675L80.7675 65.164C81.103 66.5363 80.476 67.991 79.1478 68.4695C77.356 69.1126 75.4662 69.4401 73.5625 69.4375C71.6588 69.4401 69.769 69.1126 67.9772 68.4695C66.649 67.991 66.022 66.5363 66.3547 65.164L73.5625 35.6703V35.6675ZM28.1875 37.0975C30.91 36.5392 33.66 36.0607 36.4375 35.6675ZM36.4375 35.6675L43.6425 65.164C43.978 66.5363 43.351 67.991 42.0228 68.4695C40.2309 69.1125 38.3412 69.4401 36.4375 69.4375C34.5338 69.4401 32.6441 69.1125 30.8523 68.4695C29.524 67.991 28.897 66.5363 29.2297 65.164L36.4375 35.6703V35.6675Z" fill="#D1C4E9"/>
<path d="M55 30.25V77.6875M55 77.6875C50.952 77.6875 47.0745 78.4162 43.4913 79.75M55 77.6875C59.048 77.6875 62.9255 78.4162 66.5087 79.75M73.5625 35.6675C67.4127 34.8043 61.2101 34.3724 55 34.375C48.6998 34.375 42.5012 34.815 36.4375 35.6675M73.5625 35.6675C76.34 36.0607 79.09 36.5392 81.8125 37.0975M73.5625 35.6675L80.7675 65.164C81.103 66.5363 80.476 67.991 79.1478 68.4695C77.356 69.1126 75.4662 69.4401 73.5625 69.4375C71.6588 69.4401 69.769 69.1126 67.9772 68.4695C66.649 67.991 66.022 66.5363 66.3547 65.164L73.5625 35.6703V35.6675ZM36.4375 35.6675C33.66 36.0607 30.91 36.5392 28.1875 37.0975M36.4375 35.6675L43.6425 65.164C43.978 66.5363 43.351 67.991 42.0228 68.4695C40.2309 69.1125 38.3412 69.4401 36.4375 69.4375C34.5338 69.4401 32.6441 69.1125 30.8523 68.4695C29.524 67.991 28.897 66.5363 29.2297 65.164L36.4375 35.6703V35.6675Z" stroke="#311B92" stroke-width="3" stroke-linecap="round" stroke-linejoin="round"/>
<defs>
<linearGradient id="paint0_linear_475_465" x1="55" y1="0" x2="55" y2="110" gradientUnits="userSpaceOnUse">
<stop stop-color="#D1C4E9"/>
<stop offset="1" stop-color="#673AB7"/>
</linearGradient>
</defs>
</svg>
