<svg width="19" height="19" viewBox="0 0 19 19" fill="none" xmlns="http://www.w3.org/2000/svg">
<path d="M9.5 2.375V16.0313ZM9.5 16.0313C8.33467 16.0313 7.21842 16.241 6.18688 16.625ZM9.5 16.0313C10.6653 16.0313 11.7816 16.241 12.8131 16.625ZM14.8438 3.93458C13.0734 3.68609 11.2877 3.56176 9.5 3.5625C7.68629 3.5625 5.90188 3.68917 4.15625 3.93458M14.8438 3.93458C15.6433 4.04779 16.435 4.18554 17.2188 4.34625ZM14.8438 3.93458L16.9179 12.426C17.0145 12.821 16.834 13.2398 16.4516 13.3776C15.9358 13.5627 15.3918 13.657 14.8438 13.6563C14.2957 13.657 13.7517 13.5627 13.2359 13.3776C12.8535 13.2398 12.673 12.821 12.7688 12.426L14.8438 3.93538V3.93458ZM1.78125 4.34625C2.565 4.18554 3.35667 4.04779 4.15625 3.93458ZM4.15625 3.93458L6.23042 12.426C6.327 12.821 6.1465 13.2398 5.76413 13.3776C5.2483 13.5627 4.70429 13.657 4.15625 13.6563C3.60821 13.657 3.0642 13.5627 2.54838 13.3776C2.166 13.2398 1.9855 12.821 2.08129 12.426L4.15625 3.93538V3.93458Z" fill="#D1C4E9"/>
<path d="M9.5 2.375V16.0313M9.5 16.0313C8.33467 16.0313 7.21842 16.241 6.18688 16.625M9.5 16.0313C10.6653 16.0313 11.7816 16.241 12.8131 16.625M14.8438 3.93458C13.0734 3.68609 11.2877 3.56176 9.5 3.5625C7.68629 3.5625 5.90188 3.68917 4.15625 3.93458M14.8438 3.93458C15.6433 4.04779 16.435 4.18554 17.2188 4.34625M14.8438 3.93458L16.9179 12.426C17.0145 12.821 16.834 13.2398 16.4516 13.3776C15.9358 13.5627 15.3918 13.657 14.8438 13.6563C14.2957 13.657 13.7517 13.5627 13.2359 13.3776C12.8535 13.2398 12.673 12.821 12.7688 12.426L14.8438 3.93538V3.93458ZM4.15625 3.93458C3.35667 4.04779 2.565 4.18554 1.78125 4.34625M4.15625 3.93458L6.23042 12.426C6.327 12.821 6.1465 13.2398 5.76413 13.3776C5.2483 13.5627 4.70429 13.657 4.15625 13.6563C3.60821 13.657 3.0642 13.5627 2.54838 13.3776C2.166 13.2398 1.9855 12.821 2.08129 12.426L4.15625 3.93538V3.93458Z" stroke="#311B92" stroke-linecap="round" stroke-linejoin="round"/>
</svg>
