<svg width="19" height="19" viewBox="0 0 19 19" fill="none" xmlns="http://www.w3.org/2000/svg">
<path d="M13.0624 14.8438H5.93741ZM13.0624 14.8438C13.6923 14.8438 14.2964 15.094 14.7418 15.5394C15.1872 15.9848 15.4374 16.5889 15.4374 17.2188H3.56241C3.56241 16.5889 3.81263 15.9848 4.25803 15.5394C4.70343 15.094 5.30752 14.8438 5.93741 14.8438M13.0624 14.8438V12.1719C13.0624 11.6803 12.6642 11.2813 12.1718 11.2813H11.4822M5.93741 14.8438V12.1719C5.93741 11.6803 6.33641 11.2813 6.82803 11.2813H7.51836M11.4822 11.2813H7.51836ZM11.4822 11.2813C11.0376 10.5133 10.7719 9.65495 10.7048 8.77008ZM7.51836 11.2813C7.96274 10.5132 8.2282 9.65488 8.29499 8.77008ZM4.15616 3.3535C3.37874 3.46671 2.60924 3.60446 1.84766 3.76517C2.0242 4.80129 2.53924 5.74966 3.3122 6.46188C4.08515 7.1741 5.07241 7.60999 6.11949 7.70133M4.15616 3.3535V3.5625C4.15616 5.23133 4.92091 6.72125 6.11949 7.70133M4.15616 3.3535V2.15412C5.90257 1.90792 7.68699 1.78125 9.49991 1.78125C11.3136 1.78125 13.098 1.90792 14.8437 2.15333V3.3535M6.11949 7.70133C6.75285 8.22009 7.4973 8.58581 8.29499 8.77008ZM14.8437 3.3535V3.5625C14.8437 5.23133 14.0789 6.72125 12.8803 7.70133M14.8437 3.3535C15.6173 3.46608 16.3872 3.60337 17.1522 3.76517C16.9757 4.80117 16.4607 5.74945 15.6879 6.46165C14.9151 7.17386 13.9273 7.60982 12.8803 7.70133M12.8803 7.70133C12.2467 8.2202 11.5028 8.58593 10.7048 8.77008ZM10.7048 8.77008C9.91195 8.95296 9.08786 8.95296 8.29499 8.77008Z" fill="#C8E6C9"/>
<path d="M13.0624 14.8438H5.93741M13.0624 14.8438C13.6923 14.8438 14.2964 15.094 14.7418 15.5394C15.1872 15.9848 15.4374 16.5889 15.4374 17.2188H3.56241C3.56241 16.5889 3.81263 15.9848 4.25803 15.5394C4.70343 15.094 5.30752 14.8438 5.93741 14.8438M13.0624 14.8438V12.1719C13.0624 11.6803 12.6642 11.2813 12.1718 11.2813H11.4822M5.93741 14.8438V12.1719C5.93741 11.6803 6.33641 11.2813 6.82803 11.2813H7.51836M11.4822 11.2813H7.51836M11.4822 11.2813C11.0376 10.5133 10.7719 9.65495 10.7048 8.77008M7.51836 11.2813C7.96274 10.5132 8.2282 9.65488 8.29499 8.77008M10.7048 8.77008C11.5028 8.58593 12.2467 8.2202 12.8803 7.70133M10.7048 8.77008C9.91195 8.95296 9.08786 8.95296 8.29499 8.77008M8.29499 8.77008C7.4973 8.58581 6.75285 8.22009 6.11949 7.70133M4.15616 3.3535C3.37874 3.46671 2.60924 3.60446 1.84766 3.76517C2.0242 4.80129 2.53924 5.74966 3.3122 6.46188C4.08515 7.1741 5.07241 7.60999 6.11949 7.70133M4.15616 3.3535V3.5625C4.15616 5.23133 4.92091 6.72125 6.11949 7.70133M4.15616 3.3535V2.15412C5.90257 1.90792 7.68699 1.78125 9.49991 1.78125C11.3136 1.78125 13.098 1.90792 14.8437 2.15333V3.3535M14.8437 3.3535V3.5625C14.8437 5.23133 14.0789 6.72125 12.8803 7.70133M14.8437 3.3535C15.6173 3.46608 16.3872 3.60337 17.1522 3.76517C16.9757 4.80117 16.4607 5.74945 15.6879 6.46165C14.9151 7.17386 13.9273 7.60982 12.8803 7.70133" stroke="#1B5E20" stroke-linecap="round" stroke-linejoin="round"/>
</svg>
