<svg width="110" height="110" viewBox="0 0 110 110" fill="none" xmlns="http://www.w3.org/2000/svg">
<circle cx="55" cy="55" r="55" fill="url(#paint0_linear_475_526)"/>
<path d="M68.0624 73.3438H42.9374ZM68.0624 73.3438C70.2836 73.3438 72.4138 74.2261 73.9844 75.7967C75.555 77.3673 76.4374 79.4976 76.4374 81.7188H34.5624C34.5624 79.4976 35.4447 77.3673 37.0154 75.7967C38.586 74.2261 40.7162 73.3438 42.9374 73.3438M68.0624 73.3438V63.9219C68.0624 62.1883 66.6582 60.7813 64.9218 60.7813H62.4902M42.9374 73.3438V63.9219C42.9374 62.1883 44.3444 60.7813 46.078 60.7813H48.5123M62.4902 60.7813H48.5123ZM62.4902 60.7813C60.9222 58.0732 59.9852 55.0464 59.7488 51.9261ZM48.5123 60.7813C50.0794 58.073 51.0154 55.0462 51.251 51.9261ZM36.6561 32.8255C33.9147 33.2247 31.2012 33.7105 28.5156 34.2772C29.1382 37.9309 30.9544 41.2751 33.6801 43.7866C36.4057 46.2981 39.8871 47.8352 43.5795 48.1573M36.6561 32.8255V33.5625C36.6561 39.4473 39.3529 44.7012 43.5795 48.1573M36.6561 32.8255V28.5961C42.8145 27.7279 49.107 27.2812 55.4999 27.2812C61.8956 27.2812 68.188 27.7279 74.3436 28.5933V32.8255M43.5795 48.1573C45.8129 49.9866 48.4381 51.2763 51.251 51.9261ZM74.3436 32.8255V33.5625C74.3436 39.4473 71.6469 44.7012 67.4203 48.1573M74.3436 32.8255C77.0719 33.2225 79.7868 33.7066 82.4841 34.2772C81.8617 37.9304 80.0459 41.2744 77.3208 43.7858C74.5957 46.2973 71.1121 47.8346 67.4203 48.1573M67.4203 48.1573C65.186 49.987 62.5627 51.2767 59.7488 51.9261ZM59.7488 51.9261C56.9529 52.571 54.0469 52.571 51.251 51.9261Z" fill="#C8E6C9"/>
<path d="M68.0624 73.3438H42.9374M68.0624 73.3438C70.2836 73.3438 72.4138 74.2261 73.9844 75.7967C75.555 77.3673 76.4374 79.4976 76.4374 81.7188H34.5624C34.5624 79.4976 35.4447 77.3673 37.0154 75.7967C38.586 74.2261 40.7162 73.3438 42.9374 73.3438M68.0624 73.3438V63.9219C68.0624 62.1883 66.6582 60.7813 64.9218 60.7813H62.4902M42.9374 73.3438V63.9219C42.9374 62.1883 44.3444 60.7813 46.078 60.7813H48.5123M62.4902 60.7813H48.5123M62.4902 60.7813C60.9222 58.0732 59.9852 55.0464 59.7488 51.9261M48.5123 60.7813C50.0794 58.073 51.0154 55.0462 51.251 51.9261M59.7488 51.9261C62.5627 51.2767 65.186 49.987 67.4203 48.1573M59.7488 51.9261C56.9529 52.571 54.0469 52.571 51.251 51.9261M51.251 51.9261C48.4381 51.2763 45.8129 49.9866 43.5795 48.1573M36.6561 32.8255C33.9147 33.2247 31.2012 33.7105 28.5156 34.2772C29.1382 37.9309 30.9544 41.2751 33.6801 43.7866C36.4057 46.2981 39.8871 47.8352 43.5795 48.1573M36.6561 32.8255V33.5625C36.6561 39.4473 39.3529 44.7012 43.5795 48.1573M36.6561 32.8255V28.5961C42.8145 27.7279 49.107 27.2812 55.4999 27.2812C61.8956 27.2812 68.188 27.7279 74.3436 28.5933V32.8255M74.3436 32.8255V33.5625C74.3436 39.4473 71.6469 44.7012 67.4203 48.1573M74.3436 32.8255C77.0719 33.2225 79.7868 33.7066 82.4841 34.2772C81.8617 37.9304 80.0459 41.2744 77.3208 43.7858C74.5957 46.2973 71.1121 47.8346 67.4203 48.1573" stroke="#1B5E20" stroke-width="3" stroke-linecap="round" stroke-linejoin="round"/>
<defs>
<linearGradient id="paint0_linear_475_526" x1="55" y1="0" x2="55" y2="110" gradientUnits="userSpaceOnUse">
<stop stop-color="#C8E6C9"/>
<stop offset="1" stop-color="#4CAF50"/>
</linearGradient>
</defs>
</svg>
